<svg xmlns="http://www.w3.org/2000/svg" viewBox="0 0 500 501"><defs><style>.cls-1{fill:none;}.cls-1,.cls-2{fill-rule:evenodd;}.cls-2{fill:#c33;}</style></defs><g id="Layer_2" data-name="Layer 2"><g id="Layer_1-2" data-name="Layer 1"><path class="cls-1" d="M0,0H246q-19.25,8.48-9.5,27a2.49,2.49,0,0,1,0,3,296.82,296.82,0,0,0-28,30q-13.38,26.19,1,52Q229,133.23,250,153q20.52-19.27,39.5-40,16.38-26.75,1-54-14-15.22-28.5-30,11.85-20-9-29H499q.5,122.25-1,244a13.21,13.21,0,0,0-10-9.5,30.35,30.35,0,0,0-11,0,30.2,30.2,0,0,1-7,3l-25-25a50.55,50.55,0,0,0-40-9.5,11.17,11.17,0,0,0-7,2,47.2,47.2,0,0,0-14,7.5Q365.24,231,347,250a529.76,529.76,0,0,0,44,42.5q26.79,12.17,52-3,13.85-12.78,27-26,4.37,1.25,9,3a23.41,23.41,0,0,0,14-3,11.59,11.59,0,0,0,5-7.5q1.5,121.25,1,243-120.75.5-241-1,10.69-7.81,7.5-21l-3.5-5.5A307.21,307.21,0,0,0,290.5,441q15.94-28.26-2-55Q269,366.73,250,347q-19,18.22-37.5,37-19.37,27.94-3,58,13,14.46,27,28a16.53,16.53,0,0,1-3,9q-2.2,12.57,8.5,19-120.75,1.5-242,1V253q8.73,21.75,28.5,9Q42.8,276.79,58,290.5q29.9,16.22,58-3Q134.76,269,153,250q-18.93-19.37-39-38.5-36.75-22.29-67,8a216.93,216.93,0,0,1-17,18,20.56,20.56,0,0,1-8-3Q6.06,231.23,0,246Z"/><path class="cls-2" d="M246,0h7q20.85,9,9,29,14.52,14.78,28.5,30,15.39,27.25-1,54-19,20.73-39.5,40-21-19.77-40.5-41-14.38-25.81-1-52a296.82,296.82,0,0,1,28-30,2.49,2.49,0,0,0,0-3Q226.75,8.48,246,0Z"/><path class="cls-2" d="M182,26a83,83,0,0,1,1,14,164.55,164.55,0,0,1-10.5,25Q160.13,60,148,54.5,135.4,44.06,138.5,28A179.51,179.51,0,0,1,149,5q12.93,5.9,26,11.5A31.42,31.42,0,0,1,182,26Z"/><path class="cls-2" d="M360,26a83,83,0,0,1,1,14,21.88,21.88,0,0,1-8,13.5A203.12,203.12,0,0,1,327,65a95.76,95.76,0,0,1-11-31,24.12,24.12,0,0,1,10-18.5Q338.31,9.82,351,5A137.13,137.13,0,0,1,360,26Z"/><path class="cls-2" d="M182,26a15.17,15.17,0,0,1,2,8.5,14.76,14.76,0,0,1-1,5.5A83,83,0,0,0,182,26Z"/><path class="cls-2" d="M360,26a15.17,15.17,0,0,1,2,8.5,14.76,14.76,0,0,1-1,5.5A83,83,0,0,0,360,26Z"/><path class="cls-2" d="M181,127v54H125q-32.48-7.23-39.5-40-.75-19.5-.5-39Q65.41,98.9,69.5,79,77.19,64.16,93,70.5A18.15,18.15,0,0,1,102,85q18-.25,36,.5Q173.55,91.8,181,127Z"/><path class="cls-2" d="M373,181H319V124q8-31.69,40-38.5,19.5-.75,39-.5,3.71-20.61,24-14.5,14.49,10.05,5.5,25.5a18.75,18.75,0,0,1-13.5,6q.25,19.5-.5,39-5.29,28.32-32.5,38.5C378.33,180.07,375.67,180.57,373,181Z"/><path class="cls-2" d="M28,138q17.49-2.37,27.5,12,4.89,11.44,9.5,23-12.42,5.4-25,10.5-15.22,3-24.5-9.5Q10,161.64,5,149,16.42,143,28,138Z"/><path class="cls-2" d="M459,138a71.86,71.86,0,0,1,12,.5q12,5.4,24,10.5a250.92,250.92,0,0,1-12.5,27q-11.6,11.81-27.5,6.5-10.32-4.41-20-9.5,4.81-12.69,10.5-25A35.75,35.75,0,0,1,459,138Z"/><path class="cls-2" d="M249,172a116.12,116.12,0,0,1,20.5,20q7.47,13.33-1,26a240.37,240.37,0,0,1-19,18,69.08,69.08,0,0,1-22-26,24.21,24.21,0,0,1,4-20Q240.56,181.2,249,172Z"/><path class="cls-2" d="M181,127q1.5,27.24,1,55-28.75.5-57-1h56Z"/><path class="cls-2" d="M319,124v57h54q-27.24,1.5-55,1Q317.51,152.74,319,124Z"/><path class="cls-2" d="M0,253v-7q6-14.77,22-11.5a20.56,20.56,0,0,0,8,3,216.93,216.93,0,0,0,17-18q30.25-30.3,67-8,20.07,19.14,39,38.5-18.23,19-37,37.5-28.11,19.22-58,3Q42.79,276.79,28.5,262,8.73,274.75,0,253Z"/><path class="cls-2" d="M498,244a18.54,18.54,0,0,1,0,12,11.59,11.59,0,0,1-5,7.5,23.41,23.41,0,0,1-14,3q-4.63-1.75-9-3-13.15,13.23-27,26-25.2,15.17-52,3A529.76,529.76,0,0,1,347,250q18.22-19,37-37.5a47.2,47.2,0,0,1,14-7.5,11.17,11.17,0,0,0,7-2,50.55,50.55,0,0,1,40,9.5l25,25a30.2,30.2,0,0,0,7-3,30.35,30.35,0,0,1,11,0A13.21,13.21,0,0,1,498,244Z"/><path class="cls-2" d="M405,203a11.17,11.17,0,0,1-7,2A11.17,11.17,0,0,1,405,203Z"/><path class="cls-2" d="M199,227a29.45,29.45,0,0,1,17,3.5,141.6,141.6,0,0,1,20,20l-19,19q-13,7-26,0Q181.24,260,172,250A88.26,88.26,0,0,1,199,227Z"/><path class="cls-2" d="M291,227a29.48,29.48,0,0,1,17,3.5A184.91,184.91,0,0,1,328,250q-8.73,9.48-18,18.5-12.53,7.62-26,2a141.6,141.6,0,0,1-20-20,240.37,240.37,0,0,1,18-19A28.38,28.38,0,0,1,291,227Z"/><path class="cls-2" d="M249,264a163.52,163.52,0,0,1,19.5,18q8.91,14,0,28-9,9.27-18.5,18a140.12,140.12,0,0,1-21.5-23,24.83,24.83,0,0,1,3-23Q240.56,273.2,249,264Z"/><path class="cls-2" d="M30,316a36.91,36.91,0,0,1,12,1.5q10.81,4.67,22,8.5a190.78,190.78,0,0,1-10.5,27Q43.32,364.7,28,361.5q-11.12-4.2-22-9a3.92,3.92,0,0,1-1-2q5-12.31,10.5-24.5A32.26,32.26,0,0,1,30,316Z"/><path class="cls-2" d="M460,316q15.08-.72,24.5,11,4.9,11.44,9.5,23a5,5,0,0,1-1,2.5q-11.33,4.9-23,9-14,3.15-23.5-7.5-6.21-13.87-11.5-28A141.93,141.93,0,0,0,460,316Z"/><path class="cls-2" d="M127,319h54v53q-5.46,35.72-41,42.5-19,.75-38,.5-4.52,22.28-26,14.5-15.16-13.61-1-28A20.86,20.86,0,0,1,85,398q-.25-20,.5-40,7.22-27.21,33.5-37.5A19,19,0,0,1,127,319Z"/><path class="cls-2" d="M372,319H319v53q-1.5-26.75-1-54Q345.26,317.51,372,319Z"/><path class="cls-2" d="M372,319q32.33,5.56,41.5,37,.75,21,.5,42,24.87,5.24,13.5,28a14.75,14.75,0,0,1-10.5,5,77.86,77.86,0,0,1-10-1q-8.67-4.83-9-15-20.5.25-41-.5-33.08-8.82-38-42.5V319Z"/><path class="cls-2" d="M127,319q27.24-1.5,55-1,.5,27.25-1,54V319Z"/><path class="cls-2" d="M258,498a28.44,28.44,0,0,1-4,1.5q122.51.75,245,.5h1v1H0v-1q122,.25,244-.5a4.24,4.24,0,0,0-2-1.5q-10.71-6.42-8.5-19a16.53,16.53,0,0,0,3-9q-14-13.54-27-28-16.37-30.06,3-58Q231,365.24,250,347q19,19.72,38.5,39,17.94,26.73,2,55A307.21,307.21,0,0,1,262,471.5l3.5,5.5Q268.7,490.19,258,498Z"/><path class="cls-2" d="M407,430a77.86,77.86,0,0,0,10,1A10.54,10.54,0,0,1,407,430Z"/><path class="cls-2" d="M170,436a4.86,4.86,0,0,1,4,1q4.89,10.94,9.5,22,2.63,17-11.5,26.5a174.45,174.45,0,0,1-24,9q-4.75-11.29-9.5-22.5-4.06-15.6,8.5-25.5Q158.64,441.17,170,436Z"/><path class="cls-2" d="M326,436a145.56,145.56,0,0,1,26,10.5q11.58,8.4,9.5,22.5-5.12,12.87-9.5,26a196,196,0,0,1-25-9.5q-13.15-9.94-10.5-26.5Q321.27,447.47,326,436Z"/><path class="cls-2" d="M242,498a4.24,4.24,0,0,1,2,1.5q-122,.75-244,.5v-1Q121.26,499.5,242,498Z"/><path class="cls-2" d="M258,498q120.26,1.5,241,1v1q-122.5.25-245-.5A28.44,28.44,0,0,0,258,498Z"/></g></g></svg>